<?xml version="1.0" encoding="UTF-8" standalone="no"?>
<svg
   viewBox="0 0 153 140"
   version="1.1"
   id="svg16"
   sodipodi:docname="z-toml-icon_v2.svg"
   xml:space="preserve"
   inkscape:version="1.4.3 (0d15f75042, 2025-12-25)"
   width="153"
   height="140"
   xmlns:inkscape="http://www.inkscape.org/namespaces/inkscape"
   xmlns:sodipodi="http://sodipodi.sourceforge.net/DTD/sodipodi-0.dtd"
   xmlns="http://www.w3.org/2000/svg"
   xmlns:svg="http://www.w3.org/2000/svg"><defs
     id="defs16"><linearGradient
       id="zGradient"
       x1="178"
       y1="207"
       x2="326"
       y2="375"
       gradientUnits="userSpaceOnUse"><stop
         offset="0%"
         stop-color="#FFF0A0"
         id="stop1" /><stop
         offset="28%"
         stop-color="#FFD84A"
         id="stop2" /><stop
         offset="65%"
         stop-color="#F7A41D"
         id="stop3" /><stop
         offset="100%"
         stop-color="#D96400"
         id="stop4" /></linearGradient><linearGradient
       id="zGlint"
       x1="0"
       y1="207"
       x2="0"
       y2="237"
       gradientUnits="userSpaceOnUse"><stop
         offset="0%"
         stop-color="white"
         stop-opacity="0.42"
         id="stop5" /><stop
         offset="100%"
         stop-color="white"
         stop-opacity="0"
         id="stop6" /></linearGradient><filter
       id="zShadow"
       x="0"
       y="0"
       width="1"
       height="1"><feDropShadow
         dx="4"
         dy="5"
         stdDeviation="4"
         flood-color="#1a0500"
         flood-opacity="0.62" /></filter></defs><sodipodi:namedview
     id="namedview16"
     pagecolor="#ffffff"
     bordercolor="#000000"
     borderopacity="0.25"
     inkscape:showpageshadow="2"
     inkscape:pageopacity="0.0"
     inkscape:pagecheckerboard="0"
     inkscape:deskcolor="#d1d1d1"
     inkscape:zoom="6.5195245"
     inkscape:cx="39.880209"
     inkscape:cy="112.89167"
     inkscape:window-width="3840"
     inkscape:window-height="2089"
     inkscape:window-x="2160"
     inkscape:window-y="34"
     inkscape:window-maximized="1"
     inkscape:current-layer="svg16" /><style
     id="style12">
#text { fill: #121212 }
@media (prefers-color-scheme: dark) { #text { fill: #fff } }
</style><style
     id="style12-3">
#text { fill: #121212 }
@media (prefers-color-scheme: dark) { #text { fill: #fff } }
</style><g
     id="g16"><g
       fill="#f7a41d"
       id="g12"><g
         id="g3"><polygon
           points="19,30 46,22 28,44 "
           id="polygon1"
           style="fill:#7b341e;fill-opacity:1" /><polygon
           points="28,44 22,44 22,95 31,95 20,100 12,117 0,117 0,22 46,22 33,33 "
           shape-rendering="crispEdges"
           id="polygon2"
           style="fill:#7b341e;fill-opacity:1" /><polygon
           points="4,106 31,95 12,117 "
           id="polygon3"
           style="fill:#7b341e;fill-opacity:1" /></g><g
         id="g8"><polygon
           points="37,44 56,22 62,36 "
           id="polygon4" /><polygon
           points="111,44 37,44 56,32 56,22 111,22 "
           shape-rendering="crispEdges"
           id="polygon5" /><polygon
           points="90,104 116,95 97,117 "
           id="polygon6" /><polygon
           points="97,117 42,117 42,95 116,95 100,104 "
           shape-rendering="crispEdges"
           id="polygon7" /><polygon
           points="3,140 101,22 150,0 52,117 "
           id="polygon8" /></g><g
         id="g11"><polygon
           points="122,45 141,22 140,40 "
           id="polygon9"
           style="fill:#7b341e;fill-opacity:1" /><polygon
           points="106,117 120,105 125,95 131,95 131,45 122,45 132,36 141,22 153,22 153,117 "
           shape-rendering="crispEdges"
           id="polygon10"
           style="fill:#7b341e;fill-opacity:1" /><polygon
           points="106,117 125,95 130,110 "
           id="polygon11"
           style="fill:#7b341e;fill-opacity:1" /></g></g><path
       d="M 52.929274,41.436354 H 100.07073 V 53.443997 H 81.77703 V 98.563646 H 71.222973 V 53.443997 H 52.929274 Z"
       fill="#B35E2D"
       id="path3"
       style="fill:#1a1a1a;stroke-width:0.178891;stroke:#000000;stroke-opacity:1" /></g></svg>
